<svg width="120" height="12" viewBox="0 0 120 12" fill="none" xmlns="http://www.w3.org/2000/svg">
<path d="M16.8203 10.9609H14.4141C14.2266 10.2214 14.0391 9.48177 13.8516 8.74219C13.4245 7.1276 13.0234 5.75781 12.6484 4.63281C12.1589 3.16406 11.8047 2.44531 11.5859 2.47656C11.4297 2.51302 11.3229 2.57292 11.2656 2.65625C11.2135 2.73958 11.1875 2.85677 11.1875 3.00781V8.82812C11.1875 9.50521 10.9115 10.0625 10.3594 10.5C9.83854 10.9115 9.21615 11.1172 8.49219 11.1172C7.86198 11.1172 7.29948 10.9531 6.80469 10.625C6.2474 10.2552 5.85417 9.72396 5.625 9.03125C5.57812 8.89583 5.36719 8.14323 4.99219 6.77344C4.64323 5.49219 4.34635 4.52083 4.10156 3.85938C3.7526 2.90625 3.46615 2.44531 3.24219 2.47656C3.09115 2.51302 2.98698 2.57292 2.92969 2.65625C2.8776 2.73958 2.85156 2.85677 2.85156 3.00781V10.9609H0.5V2.46094C0.5 1.6849 0.791667 1.09375 1.375 0.6875C1.88021 0.338542 2.52604 0.164062 3.3125 0.164062C4.35938 0.164062 5.19531 0.695312 5.82031 1.75781C6.23698 2.46094 6.63281 3.60156 7.00781 5.17969C7.42448 6.90885 7.72917 7.98698 7.92188 8.41406C7.98438 8.54427 8.07031 8.64844 8.17969 8.72656C8.28906 8.80469 8.39844 8.84375 8.50781 8.84375C8.73177 8.84375 8.84375 8.70052 8.84375 8.41406V2.46094C8.84375 1.6849 9.13542 1.09375 9.71875 0.6875C10.2188 0.338542 10.8646 0.164062 11.6562 0.164062C12.3021 0.164062 12.8698 0.390625 13.3594 0.84375C13.8854 1.33333 14.2839 2.05469 14.5547 3.00781L16.8203 10.9609ZM26.4609 0.4375L22.1562 7.10156V10.9609H19.8047V7.10156L15.5391 0.4375H18.2656L20.8125 4.33594C20.8281 4.42448 20.888 4.46875 20.9922 4.46875C21.1016 4.46875 21.1771 4.42448 21.2188 4.33594L23.7109 0.4375H26.4609ZM41.6953 6.78125H39.4375C38.8594 6.78125 38.4453 6.97656 38.1953 7.36719C38.0286 7.63281 37.9453 7.96615 37.9453 8.36719C37.9453 8.47135 37.9453 8.54688 37.9453 8.59375C37.9505 8.63542 37.9583 8.67448 37.9688 8.71094V10.9609H35.6562C35.6562 10.7839 35.6562 10.5417 35.6562 10.2344C35.6562 9.92708 35.6562 9.52604 35.6562 9.03125C35.6562 8.53646 35.6562 8.01042 35.6562 7.45312C35.6562 6.60938 35.8672 5.92448 36.2891 5.39844C36.7734 4.79427 37.487 4.49219 38.4297 4.49219H41.3047C41.5703 4.49219 41.7786 4.39583 41.9297 4.20312C42.0651 4.03125 42.1328 3.81771 42.1328 3.5625C42.1328 3.30208 42.0651 3.08073 41.9297 2.89844C41.7786 2.69531 41.5703 2.59375 41.3047 2.59375H35.6562V0.359375H41.6953C42.5964 0.359375 43.3099 0.692708 43.8359 1.35938C44.3151 1.96354 44.5547 2.70052 44.5547 3.57031C44.5547 4.44531 44.3177 5.18229 43.8438 5.78125C43.3177 6.44792 42.6016 6.78125 41.6953 6.78125ZM51.9609 10.9609H48.5C47.2552 10.9609 46.2734 10.4193 45.5547 9.33594C44.9089 8.36719 44.5859 7.17188 44.5859 5.75C44.5859 4.29688 44.9141 3.0625 45.5703 2.04688C46.2995 0.921875 47.276 0.359375 48.5 0.359375H51.9609C53.1849 0.359375 54.1615 0.921875 54.8906 2.04688C55.5469 3.0625 55.875 4.29688 55.875 5.75C55.875 7.17708 55.5547 8.3724 54.9141 9.33594C54.1953 10.4193 53.2109 10.9609 51.9609 10.9609ZM51.5703 8.66406C52.1276 8.66406 52.5755 8.33854 52.9141 7.6875C53.2214 7.09896 53.375 6.38802 53.375 5.55469C53.375 4.7474 53.2266 4.06771 52.9297 3.51562C52.6016 2.90104 52.1484 2.59375 51.5703 2.59375H48.8906C48.3177 2.59375 47.8672 2.90104 47.5391 3.51562C47.2422 4.06771 47.0938 4.7474 47.0938 5.55469C47.0938 6.38802 47.2448 7.09896 47.5469 7.6875C47.8802 8.33854 48.3281 8.66406 48.8906 8.66406H51.5703ZM65.6094 11.2031L58.9375 8.32812V10.9609H56.625V7.45312C56.625 6.60938 56.8359 5.92448 57.2578 5.39844C57.7422 4.79427 58.4557 4.49219 59.3984 4.49219H62.2734C62.5391 4.49219 62.7474 4.39583 62.8984 4.20312C63.0339 4.03125 63.1016 3.81771 63.1016 3.5625C63.1016 3.30208 63.0339 3.08073 62.8984 2.89844C62.7474 2.69531 62.5391 2.59375 62.2734 2.59375H56.625V0.359375H62.6641C63.5651 0.359375 64.2786 0.692708 64.8047 1.35938C65.2839 1.96354 65.5234 2.70052 65.5234 3.57031C65.5234 4.44531 65.2865 5.18229 64.8125 5.78125C64.2865 6.44792 63.5703 6.78125 62.6641 6.78125H61.2031L65.6094 8.69531V11.2031ZM73.5547 2.59375H71.1562V10.9609H68.8438V2.59375H66.4531V0.359375H73.5547V2.59375ZM83.2031 6.78125H76.6172V10.9609H74.2656V5.57812C74.2656 4.57812 74.3646 3.72917 74.5625 3.03125C74.8021 2.1875 75.1771 1.54688 75.6875 1.10938C76.2708 0.609375 77.0443 0.359375 78.0078 0.359375H83.2031V2.59375H78.0078C77.5964 2.59375 77.2708 2.75781 77.0312 3.08594C76.8594 3.3151 76.7396 3.61979 76.6719 4C76.651 4.16667 76.6328 4.33073 76.6172 4.49219H83.2031V6.71875V6.78125ZM90.8516 10.9609H87.3906C86.1458 10.9609 85.1641 10.4193 84.4453 9.33594C83.7995 8.36719 83.4766 7.17188 83.4766 5.75C83.4766 4.29688 83.8047 3.0625 84.4609 2.04688C85.1901 0.921875 86.1667 0.359375 87.3906 0.359375H90.8516C92.0755 0.359375 93.0521 0.921875 93.7812 2.04688C94.4375 3.0625 94.7656 4.29688 94.7656 5.75C94.7656 7.17708 94.4453 8.3724 93.8047 9.33594C93.0859 10.4193 92.1016 10.9609 90.8516 10.9609ZM90.4609 8.66406C91.0182 8.66406 91.4661 8.33854 91.8047 7.6875C92.112 7.09896 92.2656 6.38802 92.2656 5.55469C92.2656 4.7474 92.1172 4.06771 91.8203 3.51562C91.4922 2.90104 91.0391 2.59375 90.4609 2.59375H87.7812C87.2083 2.59375 86.7578 2.90104 86.4297 3.51562C86.1328 4.06771 85.9844 4.7474 85.9844 5.55469C85.9844 6.38802 86.1354 7.09896 86.4375 7.6875C86.7708 8.33854 87.2188 8.66406 87.7812 8.66406H90.4609ZM104.375 10.9609H100.148C98.8151 10.9609 97.7526 10.6224 96.9609 9.94531C96.3464 9.41927 95.9115 8.70312 95.6562 7.79688C95.4896 7.20312 95.4062 6.55469 95.4062 5.85156C95.4062 5.72135 95.4089 5.61719 95.4141 5.53906C95.4193 5.46094 95.4271 5.39323 95.4375 5.33594V0.359375H97.7891V5.33594C97.7891 6.23177 97.9766 6.98698 98.3516 7.60156C98.7839 8.3099 99.3828 8.66406 100.148 8.66406H104.375V10.9609ZM107.695 10.9609H105.344V0.359375H107.695V10.9609ZM115.602 10.9609H112.141C110.896 10.9609 109.914 10.4193 109.195 9.33594C108.549 8.36719 108.227 7.17188 108.227 5.75C108.227 4.29688 108.555 3.0625 109.211 2.04688C109.94 0.921875 110.917 0.359375 112.141 0.359375H115.602C116.826 0.359375 117.802 0.921875 118.531 2.04688C119.188 3.0625 119.516 4.29688 119.516 5.75C119.516 7.17708 119.195 8.3724 118.555 9.33594C117.836 10.4193 116.852 10.9609 115.602 10.9609ZM115.211 8.66406C115.768 8.66406 116.216 8.33854 116.555 7.6875C116.862 7.09896 117.016 6.38802 117.016 5.55469C117.016 4.7474 116.867 4.06771 116.57 3.51562C116.242 2.90104 115.789 2.59375 115.211 2.59375H112.531C111.958 2.59375 111.508 2.90104 111.18 3.51562C110.883 4.06771 110.734 4.7474 110.734 5.55469C110.734 6.38802 110.885 7.09896 111.188 7.6875C111.521 8.33854 111.969 8.66406 112.531 8.66406H115.211Z" fill="black"/>
</svg>
