<svg width="85" height="12" viewBox="0 0 85 12" fill="none" xmlns="http://www.w3.org/2000/svg">
<path d="M6.61719 6.78125H4.35938C3.78125 6.78125 3.36719 6.97656 3.11719 7.36719C2.95052 7.63281 2.86719 7.96615 2.86719 8.36719C2.86719 8.47135 2.86719 8.54688 2.86719 8.59375C2.8724 8.63542 2.88021 8.67448 2.89062 8.71094V10.9609H0.578125C0.578125 10.7839 0.578125 10.5417 0.578125 10.2344C0.578125 9.92708 0.578125 9.52604 0.578125 9.03125C0.578125 8.53646 0.578125 8.01042 0.578125 7.45312C0.578125 6.60938 0.789062 5.92448 1.21094 5.39844C1.69531 4.79427 2.40885 4.49219 3.35156 4.49219H6.22656C6.49219 4.49219 6.70052 4.39583 6.85156 4.20312C6.98698 4.03125 7.05469 3.81771 7.05469 3.5625C7.05469 3.30208 6.98698 3.08073 6.85156 2.89844C6.70052 2.69531 6.49219 2.59375 6.22656 2.59375H0.578125V0.359375H6.61719C7.51823 0.359375 8.23177 0.692708 8.75781 1.35938C9.23698 1.96354 9.47656 2.70052 9.47656 3.57031C9.47656 4.44531 9.23958 5.18229 8.76562 5.78125C8.23958 6.44792 7.52344 6.78125 6.61719 6.78125ZM16.8828 10.9609H13.4219C12.1771 10.9609 11.1953 10.4193 10.4766 9.33594C9.83073 8.36719 9.50781 7.17188 9.50781 5.75C9.50781 4.29688 9.83594 3.0625 10.4922 2.04688C11.2214 0.921875 12.1979 0.359375 13.4219 0.359375H16.8828C18.1068 0.359375 19.0833 0.921875 19.8125 2.04688C20.4688 3.0625 20.7969 4.29688 20.7969 5.75C20.7969 7.17708 20.4766 8.3724 19.8359 9.33594C19.1172 10.4193 18.1328 10.9609 16.8828 10.9609ZM16.4922 8.66406C17.0495 8.66406 17.4974 8.33854 17.8359 7.6875C18.1432 7.09896 18.2969 6.38802 18.2969 5.55469C18.2969 4.7474 18.1484 4.06771 17.8516 3.51562C17.5234 2.90104 17.0703 2.59375 16.4922 2.59375H13.8125C13.2396 2.59375 12.7891 2.90104 12.4609 3.51562C12.1641 4.06771 12.0156 4.7474 12.0156 5.55469C12.0156 6.38802 12.1667 7.09896 12.4688 7.6875C12.8021 8.33854 13.25 8.66406 13.8125 8.66406H16.4922ZM30.5312 11.2031L23.8594 8.32812V10.9609H21.5469V7.45312C21.5469 6.60938 21.7578 5.92448 22.1797 5.39844C22.6641 4.79427 23.3776 4.49219 24.3203 4.49219H27.1953C27.4609 4.49219 27.6693 4.39583 27.8203 4.20312C27.9557 4.03125 28.0234 3.81771 28.0234 3.5625C28.0234 3.30208 27.9557 3.08073 27.8203 2.89844C27.6693 2.69531 27.4609 2.59375 27.1953 2.59375H21.5469V0.359375H27.5859C28.487 0.359375 29.2005 0.692708 29.7266 1.35938C30.2057 1.96354 30.4453 2.70052 30.4453 3.57031C30.4453 4.44531 30.2083 5.18229 29.7344 5.78125C29.2083 6.44792 28.4922 6.78125 27.5859 6.78125H26.125L30.5312 8.69531V11.2031ZM38.4766 2.59375H36.0781V10.9609H33.7656V2.59375H31.375V0.359375H38.4766V2.59375ZM48.125 6.78125H41.5391V10.9609H39.1875V5.57812C39.1875 4.57812 39.2865 3.72917 39.4844 3.03125C39.724 2.1875 40.099 1.54688 40.6094 1.10938C41.1927 0.609375 41.9661 0.359375 42.9297 0.359375H48.125V2.59375H42.9297C42.5182 2.59375 42.1927 2.75781 41.9531 3.08594C41.7812 3.3151 41.6615 3.61979 41.5938 4C41.5729 4.16667 41.5547 4.33073 41.5391 4.49219H48.125V6.71875V6.78125ZM55.7734 10.9609H52.3125C51.0677 10.9609 50.0859 10.4193 49.3672 9.33594C48.7214 8.36719 48.3984 7.17188 48.3984 5.75C48.3984 4.29688 48.7266 3.0625 49.3828 2.04688C50.112 0.921875 51.0885 0.359375 52.3125 0.359375H55.7734C56.9974 0.359375 57.974 0.921875 58.7031 2.04688C59.3594 3.0625 59.6875 4.29688 59.6875 5.75C59.6875 7.17708 59.3672 8.3724 58.7266 9.33594C58.0078 10.4193 57.0234 10.9609 55.7734 10.9609ZM55.3828 8.66406C55.9401 8.66406 56.388 8.33854 56.7266 7.6875C57.0339 7.09896 57.1875 6.38802 57.1875 5.55469C57.1875 4.7474 57.0391 4.06771 56.7422 3.51562C56.4141 2.90104 55.9609 2.59375 55.3828 2.59375H52.7031C52.1302 2.59375 51.6797 2.90104 51.3516 3.51562C51.0547 4.06771 50.9062 4.7474 50.9062 5.55469C50.9062 6.38802 51.0573 7.09896 51.3594 7.6875C51.6927 8.33854 52.1406 8.66406 52.7031 8.66406H55.3828ZM69.2969 10.9609H65.0703C63.737 10.9609 62.6745 10.6224 61.8828 9.94531C61.2682 9.41927 60.8333 8.70312 60.5781 7.79688C60.4115 7.20312 60.3281 6.55469 60.3281 5.85156C60.3281 5.72135 60.3307 5.61719 60.3359 5.53906C60.3411 5.46094 60.349 5.39323 60.3594 5.33594V0.359375H62.7109V5.33594C62.7109 6.23177 62.8984 6.98698 63.2734 7.60156C63.7057 8.3099 64.3047 8.66406 65.0703 8.66406H69.2969V10.9609ZM72.6172 10.9609H70.2656V0.359375H72.6172V10.9609ZM80.5234 10.9609H77.0625C75.8177 10.9609 74.8359 10.4193 74.1172 9.33594C73.4714 8.36719 73.1484 7.17188 73.1484 5.75C73.1484 4.29688 73.4766 3.0625 74.1328 2.04688C74.862 0.921875 75.8385 0.359375 77.0625 0.359375H80.5234C81.7474 0.359375 82.724 0.921875 83.4531 2.04688C84.1094 3.0625 84.4375 4.29688 84.4375 5.75C84.4375 7.17708 84.1172 8.3724 83.4766 9.33594C82.7578 10.4193 81.7734 10.9609 80.5234 10.9609ZM80.1328 8.66406C80.6901 8.66406 81.138 8.33854 81.4766 7.6875C81.7839 7.09896 81.9375 6.38802 81.9375 5.55469C81.9375 4.7474 81.7891 4.06771 81.4922 3.51562C81.1641 2.90104 80.7109 2.59375 80.1328 2.59375H77.4531C76.8802 2.59375 76.4297 2.90104 76.1016 3.51562C75.8047 4.06771 75.6562 4.7474 75.6562 5.55469C75.6562 6.38802 75.8073 7.09896 76.1094 7.6875C76.4427 8.33854 76.8906 8.66406 77.4531 8.66406H80.1328Z" fill="black"/>
</svg>
